<?xml version="1.0" encoding="utf-8" standalone="no"?>
<!DOCTYPE svg PUBLIC "-//W3C//DTD SVG 1.1//EN"
  "http://www.w3.org/Graphics/SVG/1.1/DTD/svg11.dtd">
<svg xmlns:xlink="http://www.w3.org/1999/xlink" width="648pt" height="216pt" viewBox="0 0 648 216" xmlns="http://www.w3.org/2000/svg" version="1.1">
 <metadata>
  <rdf:RDF xmlns:dc="http://purl.org/dc/elements/1.1/" xmlns:cc="http://creativecommons.org/ns#" xmlns:rdf="http://www.w3.org/1999/02/22-rdf-syntax-ns#">
   <cc:Work>
    <dc:type rdf:resource="http://purl.org/dc/dcmitype/StillImage"/>
    <dc:date>2024-04-01T18:39:09.361077</dc:date>
    <dc:format>image/svg+xml</dc:format>
    <dc:creator>
     <cc:Agent>
      <dc:title>Matplotlib v3.8.2, https://matplotlib.org/</dc:title>
     </cc:Agent>
    </dc:creator>
   </cc:Work>
  </rdf:RDF>
 </metadata>
 <defs>
  <style type="text/css">*{stroke-linejoin: round; stroke-linecap: butt}</style>
 </defs>
 <g id="figure_1">
  <g id="patch_1">
   <path d="M 0 216 
L 648 216 
L 648 0 
L 0 0 
z
" style="fill: #ffffff"/>
  </g>
  <g id="axes_1">
   <g id="patch_2">
    <path d="M 81 192.24 
L 583.2 192.24 
L 583.2 25.92 
L 81 25.92 
z
" style="fill: #ffffff"/>
   </g>
   <g id="line2d_1">
    <path d="M 103.827273 82.24518 
L 107.940295 81.294368 
L 111.596314 80.684782 
L 114.795332 80.390317 
L 117.994349 80.345395 
L 121.193366 80.55375 
L 124.392383 80.998007 
L 128.048403 81.745667 
L 133.07543 83.036803 
L 139.930467 84.793908 
L 143.129484 85.401285 
L 145.871499 85.725032 
L 148.613514 85.817745 
L 150.898526 85.69025 
L 153.183538 85.357897 
L 155.46855 84.808911 
L 157.753563 84.037683 
L 160.038575 83.045268 
L 162.323587 81.839727 
L 165.065602 80.133698 
L 168.264619 77.837674 
L 171.920639 74.920359 
L 181.51769 67.084354 
L 184.259705 65.203617 
L 186.544717 63.89412 
L 188.372727 63.057112 
L 190.200737 62.438463 
L 192.028747 62.065525 
L 193.856757 61.963866 
L 195.227764 62.0798 
L 196.598771 62.370446 
L 197.969779 62.843819 
L 199.340786 63.506942 
L 200.711794 64.36577 
L 202.539803 65.823471 
L 204.367813 67.645623 
L 206.195823 69.83632 
L 208.023833 72.395482 
L 209.851843 75.318734 
L 212.136855 79.471079 
L 214.421867 84.151696 
L 216.70688 89.323433 
L 219.448894 96.110566 
L 222.647912 104.702112 
L 226.760934 116.518957 
L 238.642998 151.261075 
L 241.842015 159.601503 
L 244.127027 165.026919 
L 246.412039 169.91865 
L 248.240049 173.399105 
L 250.068059 176.458682 
L 251.896069 179.068158 
L 253.267076 180.71466 
L 254.638084 182.084887 
L 256.009091 183.171401 
L 257.380098 183.96829 
L 258.751106 184.471216 
L 260.122113 184.677436 
L 261.49312 184.585825 
L 262.864128 184.196884 
L 264.235135 183.512734 
L 265.606143 182.537101 
L 266.97715 181.275295 
L 268.348157 179.734173 
L 270.176167 177.259502 
L 272.004177 174.327058 
L 273.832187 170.964887 
L 276.117199 166.206952 
L 278.402211 160.898016 
L 281.144226 153.909673 
L 284.343243 145.089616 
L 288.913268 131.711064 
L 297.139312 107.466102 
L 300.795332 97.482216 
L 303.537346 90.583012 
L 306.279361 84.30475 
L 308.564373 79.608307 
L 310.849386 75.439139 
L 312.677396 72.501932 
L 314.505405 69.928559 
L 316.333415 67.72356 
L 318.161425 65.887182 
L 319.989435 64.415487 
L 321.817445 63.300535 
L 323.188452 62.691508 
L 324.559459 62.270356 
L 325.930467 62.029769 
L 327.758477 61.975427 
L 329.586486 62.205249 
L 331.414496 62.6948 
L 333.242506 63.417637 
L 335.527518 64.606419 
L 337.812531 66.058647 
L 340.554545 68.066426 
L 344.667568 71.409648 
L 351.979607 77.431602 
L 355.178624 79.774327 
L 357.920639 81.530569 
L 360.662654 83.008627 
L 362.947666 84.00721 
L 365.232678 84.784615 
L 367.51769 85.339546 
L 369.802703 85.677378 
L 372.087715 85.809664 
L 374.82973 85.721504 
L 377.571744 85.400693 
L 380.770762 84.794321 
L 384.883784 83.774971 
L 394.480835 81.311478 
L 398.136855 80.663578 
L 401.335872 80.327898 
L 404.534889 80.235827 
L 407.733907 80.392227 
L 410.932924 80.780647 
L 414.588943 81.460462 
L 419.615971 82.651234 
L 426.014005 84.160941 
L 429.213022 84.713335 
L 431.955037 84.98955 
L 434.697052 85.030533 
L 436.982064 84.853524 
L 439.267076 84.462673 
L 441.552088 83.842906 
L 443.837101 82.985053 
L 446.122113 81.886391 
L 448.407125 80.551055 
L 451.14914 78.652549 
L 453.891155 76.462747 
L 457.090172 73.603882 
L 461.203194 69.602565 
L 468.972236 61.961037 
L 472.171253 59.184023 
L 474.456265 57.465362 
L 476.741278 56.031392 
L 478.569287 55.125332 
L 480.397297 54.461536 
L 482.225307 54.063667 
L 484.053317 53.952982 
L 485.424324 54.069667 
L 486.795332 54.365023 
L 488.166339 54.844665 
L 489.537346 55.513089 
L 490.908354 56.373616 
L 492.736364 57.823255 
L 494.564373 59.619454 
L 496.392383 61.759555 
L 498.220393 64.236711 
L 500.048403 67.039866 
L 502.333415 70.978657 
L 504.618428 75.364065 
L 507.360442 81.147677 
L 510.559459 88.48585 
L 514.672482 98.565248 
L 524.269533 122.424214 
L 527.46855 129.661496 
L 530.210565 135.284972 
L 532.495577 139.46162 
L 534.323587 142.419413 
L 536.151597 145.001804 
L 537.979607 147.180751 
L 539.350614 148.535543 
L 540.721622 149.641134 
L 542.092629 150.490308 
L 543.463636 151.077303 
L 544.834644 151.397851 
L 546.205651 151.449208 
L 547.576658 151.230179 
L 548.947666 150.741123 
L 550.318673 149.983954 
L 551.689681 148.962132 
L 553.060688 147.680639 
L 554.431695 146.145946 
L 556.259705 143.719712 
L 558.087715 140.880189 
L 559.915725 137.654122 
L 560.372727 136.79071 
L 560.372727 136.79071 
" clip-path="url(#p15b19fc01b)" style="fill: none; stroke-dasharray: 5.55,2.4; stroke-dashoffset: 0; stroke: #ff0000; stroke-width: 1.5"/>
   </g>
   <g id="PolyCollection_1">
    <defs>
     <path id="m24631e7342" d="M 177.126301 -145.443564 
L 177.126301 -145.442201 
L 177.582847 -144.939273 
L 178.039392 -144.445915 
L 178.495937 -143.963214 
L 178.952483 -143.491568 
L 179.409028 -143.031368 
L 179.865574 -142.582997 
L 180.322119 -142.146828 
L 180.778665 -141.723229 
L 181.23521 -141.312555 
L 181.691756 -140.915153 
L 182.148301 -140.531358 
L 182.604847 -140.161498 
L 183.061392 -139.805885 
L 183.517937 -139.464824 
L 183.974483 -139.138604 
L 184.431028 -138.827506 
L 184.887574 -138.531794 
L 185.344119 -138.251722 
L 185.800665 -137.98753 
L 186.25721 -137.739443 
L 186.713756 -137.507673 
L 187.170301 -137.292418 
L 187.626847 -137.093861 
L 188.083392 -136.912169 
L 188.539937 -136.747497 
L 188.996483 -136.599982 
L 189.453028 -136.469745 
L 189.909574 -136.356895 
L 190.366119 -136.261521 
L 190.822665 -136.183699 
L 191.27921 -136.123487 
L 191.735756 -136.080929 
L 192.192301 -136.056051 
L 192.648847 -136.048862 
L 193.105392 -136.059357 
L 193.561937 -136.087514 
L 194.018483 -136.133294 
L 194.475028 -136.196642 
L 194.931574 -136.277486 
L 195.388119 -136.37574 
L 195.844665 -136.491299 
L 196.30121 -136.624046 
L 196.757756 -136.773844 
L 197.214301 -136.940543 
L 197.670847 -137.123976 
L 198.127392 -137.323963 
L 198.583937 -137.540307 
L 199.040483 -137.772796 
L 199.497028 -138.021205 
L 199.953574 -138.285294 
L 200.410119 -138.564808 
L 200.866665 -138.859479 
L 201.32321 -139.169027 
L 201.779756 -139.493157 
L 202.236301 -139.831563 
L 202.692847 -140.183924 
L 203.149392 -140.549911 
L 203.605937 -140.92918 
L 204.062483 -141.321377 
L 204.519028 -141.726138 
L 204.975574 -142.143088 
L 205.432119 -142.571843 
L 205.888665 -143.012009 
L 206.34521 -143.463182 
L 206.801756 -143.924951 
L 207.258301 -144.396897 
L 207.714847 -143.943783 
L 208.171392 -143.100463 
L 208.627937 -142.240167 
L 209.084483 -141.363447 
L 209.541028 -140.47086 
L 209.997574 -139.562969 
L 210.454119 -138.640344 
L 210.910665 -137.703558 
L 211.36721 -136.753191 
L 211.823756 -135.789823 
L 212.280301 -134.81404 
L 212.736847 -133.82643 
L 213.193392 -132.827582 
L 213.649937 -131.818087 
L 214.106483 -130.798538 
L 214.563028 -129.769524 
L 215.019574 -128.731639 
L 215.476119 -127.685472 
L 215.932665 -126.631612 
L 216.38921 -125.570645 
L 216.845756 -124.503156 
L 217.302301 -123.429725 
L 217.758847 -122.350929 
L 218.215392 -121.267341 
L 218.671937 -120.17953 
L 219.128483 -119.088058 
L 219.585028 -117.993483 
L 220.041574 -116.896356 
L 220.498119 -115.797221 
L 220.954665 -114.696618 
L 221.41121 -113.595077 
L 221.867756 -112.493121 
L 222.324301 -111.391264 
L 222.780847 -110.290015 
L 223.237392 -109.189871 
L 223.693937 -108.091322 
L 224.150483 -106.994848 
L 224.607028 -105.90092 
L 225.063574 -104.809998 
L 225.520119 -103.722535 
L 225.976665 -102.638972 
L 226.43321 -101.55974 
L 226.889756 -100.485259 
L 227.346301 -99.415941 
L 227.802847 -98.352186 
L 228.259392 -97.294381 
L 228.715937 -96.242908 
L 229.172483 -95.198133 
L 229.629028 -94.160415 
L 230.085574 -93.130099 
L 230.542119 -92.107523 
L 230.998665 -91.093012 
L 231.45521 -90.086882 
L 231.911756 -89.089437 
L 232.368301 -88.100973 
L 232.824847 -87.121773 
L 233.281392 -86.152114 
L 233.737937 -85.19226 
L 234.194483 -84.242466 
L 234.651028 -83.30298 
L 235.107574 -82.374038 
L 235.564119 -81.455868 
L 236.020665 -80.548692 
L 236.47721 -79.652719 
L 236.933756 -78.768154 
L 237.390301 -77.895194 
L 237.846847 -77.034025 
L 238.303392 -76.184831 
L 238.759937 -75.347787 
L 239.216483 -74.523059 
L 239.673028 -73.710813 
L 240.129574 -72.911203 
L 240.586119 -72.124383 
L 241.042665 -71.3505 
L 241.49921 -70.589695 
L 241.955756 -69.842107 
L 242.412301 -69.107871 
L 242.868847 -68.387117 
L 243.325392 -67.679975 
L 243.781937 -66.986571 
L 244.238483 -66.307027 
L 244.695028 -65.641465 
L 245.151574 -64.990006 
L 245.608119 -64.352768 
L 246.064665 -63.729871 
L 246.52121 -63.121431 
L 246.977756 -62.527567 
L 247.434301 -61.948397 
L 247.890847 -61.384039 
L 248.347392 -60.834613 
L 248.803937 -60.300238 
L 249.260483 -59.781037 
L 249.717028 -59.277133 
L 250.173574 -58.788652 
L 250.630119 -58.315719 
L 251.086665 -57.858465 
L 251.54321 -57.417021 
L 251.999756 -56.991521 
L 252.456301 -56.582102 
L 252.912847 -56.188904 
L 253.369392 -55.812068 
L 253.825937 -55.45174 
L 254.282483 -55.108067 
L 254.739028 -54.781201 
L 255.195574 -54.471295 
L 255.652119 -54.178506 
L 256.108665 -53.902991 
L 256.56521 -53.644915 
L 257.021756 -53.404439 
L 257.478301 -53.181732 
L 257.934847 -52.976961 
L 258.391392 -52.790298 
L 258.847937 -52.621915 
L 259.304483 -52.471986 
L 259.761028 -52.340685 
L 260.217574 -52.228189 
L 260.674119 -52.134675 
L 261.130665 -52.060319 
L 261.58721 -52.005297 
L 262.043756 -51.969787 
L 262.500301 -51.953964 
L 262.956847 -51.958001 
L 263.413392 -51.98207 
L 263.869937 -52.026341 
L 264.326483 -52.090982 
L 264.783028 -52.176156 
L 265.239574 -52.282024 
L 265.696119 -52.408741 
L 266.152665 -52.556459 
L 266.60921 -52.725322 
L 267.065756 -52.915471 
L 267.522301 -53.12704 
L 267.978847 -53.360154 
L 268.435392 -53.614932 
L 268.891937 -53.891485 
L 269.348483 -54.189914 
L 269.805028 -54.510312 
L 270.261574 -54.852761 
L 270.718119 -55.217333 
L 271.174665 -55.604089 
L 271.63121 -56.013079 
L 272.087756 -56.444338 
L 272.544301 -56.897891 
L 273.000847 -57.37375 
L 273.457392 -57.871911 
L 273.913937 -58.392356 
L 274.370483 -58.935054 
L 274.827028 -59.499957 
L 275.283574 -60.087002 
L 275.740119 -60.696108 
L 276.196665 -61.32718 
L 276.65321 -61.980103 
L 277.109756 -62.654747 
L 277.566301 -63.350963 
L 278.022847 -64.068582 
L 278.479392 -64.807421 
L 278.935937 -65.567273 
L 279.392483 -66.347914 
L 279.849028 -67.149103 
L 280.305574 -67.970576 
L 280.762119 -68.81205 
L 281.218665 -69.673223 
L 281.67521 -70.553774 
L 282.131756 -71.453359 
L 282.588301 -72.371618 
L 283.044847 -73.308166 
L 283.501392 -74.262602 
L 283.957937 -75.234504 
L 284.414483 -76.223429 
L 284.871028 -77.228916 
L 285.327574 -78.250483 
L 285.784119 -79.287629 
L 286.240665 -80.339835 
L 286.69721 -81.406563 
L 287.153756 -82.487255 
L 287.610301 -83.581336 
L 288.066847 -84.688215 
L 288.523392 -85.807282 
L 288.979937 -86.93791 
L 289.436483 -88.079456 
L 289.893028 -89.231263 
L 290.349574 -90.392658 
L 290.806119 -91.562952 
L 291.262665 -92.741445 
L 291.71921 -93.927422 
L 292.175756 -95.120157 
L 292.632301 -96.318911 
L 293.088847 -97.522936 
L 293.545392 -98.731471 
L 294.001937 -99.94375 
L 294.458483 -101.158995 
L 294.915028 -102.376423 
L 295.371574 -103.595244 
L 295.828119 -104.814662 
L 296.284665 -106.033876 
L 296.74121 -107.252083 
L 297.197756 -108.468475 
L 297.654301 -109.682246 
L 298.110847 -110.892586 
L 298.567392 -112.098687 
L 299.023937 -113.299742 
L 299.480483 -114.494948 
L 299.937028 -115.683504 
L 300.393574 -116.864614 
L 300.850119 -118.037489 
L 301.306665 -119.201345 
L 301.76321 -120.355407 
L 302.219756 -121.498909 
L 302.676301 -122.631095 
L 303.132847 -123.751221 
L 303.589392 -124.858552 
L 304.045937 -125.95237 
L 304.502483 -127.031969 
L 304.959028 -128.096659 
L 305.415574 -129.145765 
L 305.872119 -130.178632 
L 306.328665 -131.194619 
L 306.78521 -132.193108 
L 307.241756 -133.173498 
L 307.698301 -134.135211 
L 308.154847 -135.077688 
L 308.611392 -136.000396 
L 309.067937 -136.902821 
L 309.524483 -137.784477 
L 309.981028 -138.644901 
L 310.437574 -139.483654 
L 310.894119 -140.300324 
L 311.350665 -141.094528 
L 311.80721 -141.865906 
L 312.263756 -142.614128 
L 312.720301 -143.338892 
L 313.176847 -144.039925 
L 313.633392 -144.716981 
L 314.089937 -145.369845 
L 314.546483 -145.998332 
L 315.003028 -146.602285 
L 315.459574 -147.181578 
L 315.916119 -147.736115 
L 316.372665 -148.265831 
L 316.82921 -148.770689 
L 317.285756 -149.250686 
L 317.742301 -149.705845 
L 318.198847 -150.13622 
L 318.655392 -150.541894 
L 319.111937 -150.922665 
L 319.568483 -151.264818 
L 320.025028 -151.594786 
L 320.481574 -151.913029 
L 320.938119 -152.204896 
L 321.394665 -152.465862 
L 321.85121 -152.703528 
L 322.307756 -152.918223 
L 322.764301 -153.110289 
L 323.220847 -153.280094 
L 323.677392 -153.42803 
L 324.133937 -153.554513 
L 324.590483 -153.659984 
L 325.047028 -153.744905 
L 325.503574 -153.809762 
L 325.960119 -153.855063 
L 326.416665 -153.881336 
L 326.87321 -153.889126 
L 327.329756 -153.879001 
L 327.786301 -153.851545 
L 328.242847 -153.807358 
L 328.699392 -153.747056 
L 329.155937 -153.671271 
L 329.612483 -153.580649 
L 330.069028 -153.475846 
L 330.525574 -153.357532 
L 330.982119 -153.226388 
L 331.438665 -153.083103 
L 331.89521 -152.928374 
L 332.351756 -152.762906 
L 332.808301 -152.587411 
L 333.264847 -152.402604 
L 333.721392 -152.209206 
L 334.177937 -152.00794 
L 334.634483 -151.799529 
L 335.091028 -151.584698 
L 335.547574 -151.364169 
L 336.004119 -151.00761 
L 336.460665 -150.54045 
L 336.91721 -150.045814 
L 337.373756 -149.523804 
L 337.830301 -148.974555 
L 338.286847 -148.398233 
L 338.743392 -147.795037 
L 339.199937 -147.165194 
L 339.656483 -146.508967 
L 340.113028 -145.826647 
L 340.569574 -145.118556 
L 341.026119 -144.385046 
L 341.482665 -143.626496 
L 341.93921 -142.843317 
L 342.395756 -142.035945 
L 342.852301 -141.204846 
L 343.308847 -140.350509 
L 343.765392 -139.47345 
L 344.221937 -138.574212 
L 344.678483 -137.65336 
L 345.135028 -136.711481 
L 345.591574 -135.749186 
L 346.048119 -134.767107 
L 346.504665 -133.765896 
L 346.96121 -132.746223 
L 347.417756 -131.708779 
L 347.874301 -130.654269 
L 348.330847 -129.583417 
L 348.787392 -128.49696 
L 349.243937 -127.39565 
L 349.700483 -126.280252 
L 350.157028 -125.151541 
L 350.613574 -124.010305 
L 351.070119 -122.857339 
L 351.526665 -121.693449 
L 351.98321 -120.519446 
L 352.439756 -119.336148 
L 352.896301 -118.144378 
L 353.352847 -116.944962 
L 353.809392 -115.73873 
L 354.265937 -114.526511 
L 354.722483 -113.309137 
L 355.179028 -112.087439 
L 355.635574 -110.862244 
L 356.092119 -109.634379 
L 356.548665 -108.404664 
L 357.00521 -107.173918 
L 357.461756 -105.94295 
L 357.918301 -104.712565 
L 358.374847 -103.483557 
L 358.831392 -102.256716 
L 359.287937 -101.032816 
L 359.744483 -99.812625 
L 360.201028 -98.596898 
L 360.657574 -97.386377 
L 361.114119 -96.181792 
L 361.570665 -94.983858 
L 362.02721 -93.793275 
L 362.483756 -92.610729 
L 362.940301 -91.436888 
L 363.396847 -90.272407 
L 363.853392 -89.117918 
L 364.309937 -87.974041 
L 364.766483 -86.841374 
L 365.223028 -85.720496 
L 365.679574 -84.611969 
L 366.136119 -83.516335 
L 366.592665 -82.434113 
L 367.04921 -81.365805 
L 367.505756 -80.31189 
L 367.962301 -79.272828 
L 368.418847 -78.249056 
L 368.875392 -77.240992 
L 369.331937 -76.249029 
L 369.788483 -75.273543 
L 370.245028 -74.314884 
L 370.701574 -73.373384 
L 371.158119 -72.44935 
L 371.614665 -71.54307 
L 372.07121 -70.654809 
L 372.527756 -69.784813 
L 372.984301 -68.933304 
L 373.440847 -68.100483 
L 373.897392 -67.286533 
L 374.353937 -66.491614 
L 374.810483 -65.715867 
L 375.267028 -64.959411 
L 375.723574 -64.222348 
L 376.180119 -63.50476 
L 376.636665 -62.806709 
L 377.09321 -62.128239 
L 377.549756 -61.469377 
L 378.006301 -60.830131 
L 378.462847 -60.210494 
L 378.919392 -59.610439 
L 379.375937 -59.029928 
L 379.832483 -58.468902 
L 380.289028 -57.927291 
L 380.745574 -57.405009 
L 381.202119 -56.901957 
L 381.658665 -56.418023 
L 382.11521 -55.95308 
L 382.571756 -55.506993 
L 383.028301 -55.079613 
L 383.484847 -54.670781 
L 383.941392 -54.280329 
L 384.397937 -53.908078 
L 384.854483 -53.553842 
L 385.311028 -53.217425 
L 385.767574 -52.898625 
L 386.224119 -52.597235 
L 386.680665 -52.313038 
L 387.13721 -52.045814 
L 387.593756 -51.795339 
L 388.050301 -51.561384 
L 388.506847 -51.343715 
L 388.963392 -51.142098 
L 389.419937 -50.956295 
L 389.876483 -50.786067 
L 390.333028 -50.631174 
L 390.789574 -50.491377 
L 391.246119 -50.366434 
L 391.702665 -50.256106 
L 392.15921 -50.160156 
L 392.615756 -50.078347 
L 393.072301 -50.010445 
L 393.528847 -49.95622 
L 393.985392 -49.915444 
L 394.441937 -49.887894 
L 394.898483 -49.87335 
L 395.355028 -49.871597 
L 395.811574 -49.882425 
L 396.268119 -49.905631 
L 396.724665 -49.941016 
L 397.18121 -49.988388 
L 397.637756 -50.04756 
L 398.094301 -50.118354 
L 398.550847 -50.200598 
L 399.007392 -50.294126 
L 399.463937 -50.398782 
L 399.920483 -50.514414 
L 400.377028 -50.640881 
L 400.833574 -50.778049 
L 401.290119 -50.92579 
L 401.746665 -51.083987 
L 402.20321 -51.252529 
L 402.659756 -51.431314 
L 403.116301 -51.620248 
L 403.572847 -51.819245 
L 404.029392 -52.028226 
L 404.485937 -52.247122 
L 404.942483 -52.475871 
L 405.399028 -52.714416 
L 405.855574 -52.962713 
L 406.312119 -53.220721 
L 406.768665 -53.488407 
L 407.22521 -53.765746 
L 407.681756 -54.05272 
L 408.138301 -54.349316 
L 408.594847 -54.655528 
L 409.051392 -54.971357 
L 409.507937 -55.296807 
L 409.964483 -55.631889 
L 410.421028 -55.976619 
L 410.877574 -56.331018 
L 411.334119 -56.69511 
L 411.790665 -57.068924 
L 412.24721 -57.452491 
L 412.703756 -57.845847 
L 413.160301 -58.249028 
L 413.616847 -58.662076 
L 414.073392 -59.085031 
L 414.529937 -59.517937 
L 414.986483 -59.960837 
L 415.443028 -60.413777 
L 415.899574 -60.8768 
L 416.356119 -61.349952 
L 416.812665 -61.833275 
L 417.26921 -62.326812 
L 417.725756 -62.830604 
L 418.182301 -63.344688 
L 418.638847 -63.869102 
L 419.095392 -64.403879 
L 419.551937 -64.949047 
L 420.008483 -65.504633 
L 420.465028 -66.07066 
L 420.921574 -66.647143 
L 421.378119 -67.234097 
L 421.834665 -67.831528 
L 422.29121 -68.439437 
L 422.747756 -69.057821 
L 423.204301 -69.686669 
L 423.660847 -70.325964 
L 424.117392 -70.975681 
L 424.573937 -71.635789 
L 425.030483 -72.30625 
L 425.487028 -72.987017 
L 425.943574 -73.678036 
L 426.400119 -74.379245 
L 426.856665 -75.090573 
L 427.31321 -75.811941 
L 427.769756 -76.543261 
L 428.226301 -77.284436 
L 428.682847 -78.035362 
L 429.139392 -78.795923 
L 429.595937 -79.565997 
L 430.052483 -80.34545 
L 430.509028 -81.134141 
L 430.965574 -81.931919 
L 431.422119 -82.738624 
L 431.878665 -83.554086 
L 432.33521 -84.378127 
L 432.791756 -85.21056 
L 433.248301 -86.051188 
L 433.704847 -86.899807 
L 434.161392 -87.756201 
L 434.617937 -88.620148 
L 435.074483 -89.491418 
L 435.531028 -90.36977 
L 435.987574 -91.254958 
L 436.444119 -92.146725 
L 436.900665 -93.04481 
L 437.35721 -93.94894 
L 437.813756 -94.858839 
L 438.270301 -95.774222 
L 438.726847 -96.694797 
L 439.183392 -97.620267 
L 439.639937 -98.550329 
L 440.096483 -99.484671 
L 440.553028 -100.42298 
L 441.009574 -101.364936 
L 441.466119 -102.310214 
L 441.922665 -103.258483 
L 442.37921 -104.209412 
L 442.835756 -105.162663 
L 443.292301 -106.117895 
L 443.748847 -107.074766 
L 444.205392 -108.032928 
L 444.661937 -108.992034 
L 445.118483 -109.951734 
L 445.575028 -110.911676 
L 446.031574 -111.871506 
L 446.488119 -112.830872 
L 446.944665 -113.789419 
L 447.40121 -114.746793 
L 447.857756 -115.70264 
L 448.314301 -116.656606 
L 448.770847 -117.60834 
L 449.227392 -118.55749 
L 449.683937 -119.503707 
L 450.140483 -120.446643 
L 450.597028 -121.385953 
L 451.053574 -122.321295 
L 451.510119 -123.252327 
L 451.966665 -124.178713 
L 452.42321 -125.10012 
L 452.879756 -126.016218 
L 453.336301 -126.926679 
L 453.792847 -127.831182 
L 454.249392 -128.729409 
L 454.705937 -129.621046 
L 455.162483 -130.505783 
L 455.619028 -131.383316 
L 456.075574 -132.253345 
L 456.532119 -133.115575 
L 456.988665 -133.969716 
L 457.44521 -134.815485 
L 457.901756 -135.6526 
L 458.358301 -136.480787 
L 458.814847 -137.299778 
L 459.271392 -138.109308 
L 459.727937 -138.90912 
L 460.184483 -139.698958 
L 460.641028 -140.478575 
L 461.097574 -141.247728 
L 461.554119 -142.006179 
L 462.010665 -142.753694 
L 462.46721 -143.490046 
L 462.923756 -144.215011 
L 463.380301 -144.928371 
L 463.836847 -145.62991 
L 464.293392 -146.31942 
L 464.749937 -146.996694 
L 465.206483 -147.661532 
L 465.663028 -148.313735 
L 466.119574 -148.95311 
L 466.576119 -149.579467 
L 467.032665 -150.192617 
L 467.48921 -150.792378 
L 467.945756 -151.378569 
L 468.402301 -151.95101 
L 468.858847 -152.509527 
L 469.315392 -153.053946 
L 469.771937 -153.584095 
L 470.228483 -154.099805 
L 470.685028 -154.600909 
L 471.141574 -155.087239 
L 471.598119 -155.558631 
L 472.054665 -156.014922 
L 472.51121 -156.455947 
L 472.967756 -156.881544 
L 473.424301 -157.291553 
L 473.880847 -157.68581 
L 474.337392 -158.064156 
L 474.793937 -158.426429 
L 475.250483 -158.772469 
L 475.707028 -159.102113 
L 476.163574 -159.415202 
L 476.620119 -159.711572 
L 477.076665 -159.991062 
L 477.53321 -160.25351 
L 477.989756 -160.498754 
L 478.446301 -160.726628 
L 478.902847 -160.936971 
L 479.359392 -161.129617 
L 479.815937 -161.304403 
L 480.272483 -161.461163 
L 480.729028 -161.599733 
L 481.185574 -161.719948 
L 481.642119 -161.821642 
L 482.098665 -161.90465 
L 482.55521 -161.968809 
L 483.011756 -162.013952 
L 483.468301 -162.039918 
L 483.924847 -162.04654 
L 484.381392 -162.033649 
L 484.837937 -162.001052 
L 485.294483 -161.948446 
L 485.751028 -161.875746 
L 486.207574 -161.78315 
L 486.664119 -161.670463 
L 487.120665 -161.537409 
L 487.57721 -161.383763 
L 488.033756 -161.209358 
L 488.490301 -161.014048 
L 488.946847 -160.797665 
L 489.403392 -160.559996 
L 489.859937 -160.30082 
L 490.316483 -160.020057 
L 490.773028 -159.717728 
L 491.229574 -159.393878 
L 491.686119 -159.048576 
L 492.142665 -158.68192 
L 492.59921 -158.294046 
L 493.055756 -157.885113 
L 493.512301 -157.455239 
L 493.512301 -157.457251 
L 493.512301 -157.457251 
L 493.055756 -157.889049 
L 492.59921 -158.299025 
L 492.142665 -158.687146 
L 491.686119 -159.053467 
L 491.229574 -159.398067 
L 490.773028 -159.721036 
L 490.316483 -160.022479 
L 489.859937 -160.302523 
L 489.403392 -160.561318 
L 488.946847 -160.798955 
L 488.490301 -161.01543 
L 488.033756 -161.210787 
L 487.57721 -161.385161 
L 487.120665 -161.538747 
L 486.664119 -161.671758 
L 486.207574 -161.78439 
L 485.751028 -161.876828 
L 485.294483 -161.949369 
L 484.837937 -162.002742 
L 484.381392 -162.037426 
L 483.924847 -162.053718 
L 483.468301 -162.05205 
L 483.011756 -162.032914 
L 482.55521 -161.996831 
L 482.098665 -161.944353 
L 481.642119 -161.876055 
L 481.185574 -161.792538 
L 480.729028 -161.694424 
L 480.272483 -161.582358 
L 479.815937 -161.457003 
L 479.359392 -161.31904 
L 478.902847 -161.169169 
L 478.446301 -161.008103 
L 477.989756 -160.83657 
L 477.53321 -160.655311 
L 477.076665 -160.465076 
L 476.620119 -160.266627 
L 476.163574 -160.060731 
L 475.707028 -159.848163 
L 475.250483 -159.629702 
L 474.793937 -159.40613 
L 474.337392 -159.178232 
L 473.880847 -158.946792 
L 473.424301 -158.712592 
L 472.967756 -158.476413 
L 472.51121 -158.239029 
L 472.054665 -158.001211 
L 471.598119 -157.763722 
L 471.141574 -157.527315 
L 470.685028 -157.292734 
L 470.228483 -157.060712 
L 469.771937 -156.831969 
L 469.315392 -156.607212 
L 468.858847 -156.387131 
L 468.402301 -156.172402 
L 467.945756 -155.963683 
L 467.48921 -155.761612 
L 467.032665 -155.56681 
L 466.576119 -155.379875 
L 466.119574 -155.201386 
L 465.663028 -155.031899 
L 465.206483 -154.871946 
L 464.749937 -154.722037 
L 464.293392 -154.582655 
L 463.836847 -154.454261 
L 463.380301 -154.337287 
L 462.923756 -154.232141 
L 462.46721 -154.139204 
L 462.010665 -154.05883 
L 461.554119 -153.991343 
L 461.097574 -153.937043 
L 460.641028 -153.8962 
L 460.184483 -153.869056 
L 459.727937 -153.855824 
L 459.271392 -153.856691 
L 458.814847 -153.871813 
L 458.358301 -153.901319 
L 457.901756 -153.945311 
L 457.44521 -154.00386 
L 456.988665 -154.077013 
L 456.532119 -154.164787 
L 456.075574 -154.267172 
L 455.619028 -154.384133 
L 455.162483 -154.515606 
L 454.705937 -154.661505 
L 454.249392 -154.821714 
L 453.792847 -154.996096 
L 453.336301 -155.184489 
L 452.879756 -155.386706 
L 452.42321 -155.602538 
L 451.966665 -155.831755 
L 451.510119 -156.074104 
L 451.053574 -156.329312 
L 450.597028 -156.597087 
L 450.140483 -156.877116 
L 449.683937 -157.16907 
L 449.227392 -157.472603 
L 448.770847 -157.787349 
L 448.314301 -158.112931 
L 447.857756 -158.448955 
L 447.40121 -158.795014 
L 446.944665 -159.150688 
L 446.488119 -159.515546 
L 446.031574 -159.889145 
L 445.575028 -160.271034 
L 445.118483 -160.660752 
L 444.661937 -161.057829 
L 444.205392 -161.461791 
L 443.748847 -161.872156 
L 443.292301 -162.288436 
L 442.835756 -162.710143 
L 442.37921 -163.13678 
L 441.922665 -163.567853 
L 441.466119 -164.002863 
L 441.009574 -164.441313 
L 440.553028 -164.882705 
L 440.096483 -165.326542 
L 439.639937 -165.77233 
L 439.183392 -166.219578 
L 438.726847 -166.667796 
L 438.270301 -167.116502 
L 437.813756 -167.565217 
L 437.35721 -168.013467 
L 436.900665 -168.460787 
L 436.444119 -168.906717 
L 435.987574 -169.350806 
L 435.531028 -169.792609 
L 435.074483 -170.231693 
L 434.617937 -170.667631 
L 434.161392 -171.100009 
L 433.704847 -171.528421 
L 433.248301 -171.952473 
L 432.791756 -172.371781 
L 432.33521 -172.785973 
L 431.878665 -173.194689 
L 431.422119 -173.597581 
L 430.965574 -173.994312 
L 430.509028 -174.38456 
L 430.052483 -174.768013 
L 429.595937 -175.144374 
L 429.139392 -175.513358 
L 428.682847 -175.874694 
L 428.226301 -176.228122 
L 427.769756 -176.573398 
L 427.31321 -176.910289 
L 426.856665 -177.238577 
L 426.400119 -177.558055 
L 425.943574 -177.868532 
L 425.487028 -178.169827 
L 425.030483 -178.461774 
L 424.573937 -178.744218 
L 424.117392 -179.017018 
L 423.660847 -179.280045 
L 423.204301 -179.533181 
L 422.747756 -179.776322 
L 422.29121 -180.009372 
L 421.834665 -180.232251 
L 421.378119 -180.444887 
L 420.921574 -180.647219 
L 420.465028 -180.839197 
L 420.008483 -181.020781 
L 419.551937 -181.19194 
L 419.095392 -181.352655 
L 418.638847 -181.502912 
L 418.182301 -181.642709 
L 417.725756 -181.77205 
L 417.26921 -181.890949 
L 416.812665 -181.999425 
L 416.356119 -182.097507 
L 415.899574 -182.185228 
L 415.443028 -182.262628 
L 414.986483 -182.329755 
L 414.529937 -182.386659 
L 414.073392 -182.433398 
L 413.616847 -182.470034 
L 413.160301 -182.496632 
L 412.703756 -182.513263 
L 412.24721 -182.52 
L 411.790665 -182.51692 
L 411.334119 -182.504103 
L 410.877574 -182.481631 
L 410.421028 -182.449589 
L 409.964483 -182.408063 
L 409.507937 -182.357142 
L 409.051392 -182.296915 
L 408.594847 -182.227473 
L 408.138301 -182.148907 
L 407.681756 -182.061309 
L 407.22521 -181.964771 
L 406.768665 -181.859387 
L 406.312119 -181.745248 
L 405.855574 -181.622447 
L 405.399028 -181.491076 
L 404.942483 -181.351227 
L 404.485937 -181.202989 
L 404.029392 -181.046455 
L 403.572847 -180.881712 
L 403.116301 -180.70885 
L 402.659756 -180.527956 
L 402.20321 -180.339118 
L 401.746665 -180.142422 
L 401.290119 -179.937953 
L 400.833574 -179.725795 
L 400.377028 -179.506033 
L 399.920483 -179.27875 
L 399.463937 -179.044027 
L 399.007392 -178.801948 
L 398.550847 -178.552595 
L 398.094301 -178.296049 
L 397.637756 -178.032392 
L 397.18121 -177.761705 
L 396.724665 -177.484072 
L 396.268119 -177.199575 
L 395.811574 -176.908297 
L 395.355028 -176.610323 
L 394.898483 -176.30574 
L 394.441937 -175.994633 
L 393.985392 -175.677093 
L 393.528847 -175.35321 
L 393.072301 -175.023077 
L 392.615756 -174.68679 
L 392.15921 -174.344447 
L 391.702665 -173.99615 
L 391.246119 -173.642003 
L 390.789574 -173.282113 
L 390.333028 -172.916594 
L 389.876483 -172.545561 
L 389.419937 -172.169135 
L 388.963392 -171.787439 
L 388.506847 -171.400605 
L 388.050301 -171.008767 
L 387.593756 -170.612064 
L 387.13721 -170.210643 
L 386.680665 -169.804655 
L 386.224119 -169.394257 
L 385.767574 -168.979612 
L 385.311028 -168.56089 
L 384.854483 -168.138268 
L 384.397937 -167.711928 
L 383.941392 -167.28206 
L 383.484847 -166.84886 
L 383.028301 -166.412531 
L 382.571756 -165.973284 
L 382.11521 -165.531335 
L 381.658665 -165.086911 
L 381.202119 -164.640242 
L 380.745574 -164.191568 
L 380.289028 -163.741133 
L 379.832483 -163.289192 
L 379.375937 -162.836005 
L 378.919392 -162.381837 
L 378.462847 -161.926964 
L 378.006301 -161.471665 
L 377.549756 -161.016227 
L 377.09321 -160.560944 
L 376.636665 -160.106115 
L 376.180119 -159.652045 
L 375.723574 -159.199045 
L 375.267028 -158.747431 
L 374.810483 -158.297524 
L 374.353937 -157.849651 
L 373.897392 -157.404141 
L 373.440847 -156.96133 
L 372.984301 -156.521554 
L 372.527756 -156.085156 
L 372.07121 -155.652478 
L 371.614665 -155.223868 
L 371.158119 -154.799673 
L 370.701574 -154.380243 
L 370.245028 -153.965928 
L 369.788483 -153.557078 
L 369.331937 -153.154043 
L 368.875392 -152.757175 
L 368.418847 -152.366819 
L 367.962301 -151.983323 
L 367.505756 -151.60703 
L 367.04921 -151.23828 
L 366.592665 -150.87741 
L 366.136119 -150.524752 
L 365.679574 -150.180633 
L 365.223028 -149.845374 
L 364.766483 -149.51929 
L 364.309937 -149.202689 
L 363.853392 -148.89587 
L 363.396847 -148.599125 
L 362.940301 -148.312737 
L 362.483756 -148.036978 
L 362.02721 -147.772111 
L 361.570665 -147.518386 
L 361.114119 -147.276045 
L 360.657574 -147.045312 
L 360.201028 -146.826404 
L 359.744483 -146.61952 
L 359.287937 -146.424847 
L 358.831392 -146.242556 
L 358.374847 -146.072803 
L 357.918301 -145.915729 
L 357.461756 -145.771456 
L 357.00521 -145.64009 
L 356.548665 -145.521722 
L 356.092119 -145.41642 
L 355.635574 -145.324238 
L 355.179028 -145.245208 
L 354.722483 -145.179344 
L 354.265937 -145.126639 
L 353.809392 -145.087068 
L 353.352847 -145.060582 
L 352.896301 -145.047114 
L 352.439756 -145.046575 
L 351.98321 -145.058855 
L 351.526665 -145.083822 
L 351.070119 -145.121323 
L 350.613574 -145.171181 
L 350.157028 -145.233199 
L 349.700483 -145.307159 
L 349.243937 -145.392819 
L 348.787392 -145.489914 
L 348.330847 -145.598161 
L 347.874301 -145.717252 
L 347.417756 -145.846858 
L 346.96121 -145.986629 
L 346.504665 -146.136192 
L 346.048119 -146.295156 
L 345.591574 -146.463107 
L 345.135028 -146.639611 
L 344.678483 -146.824214 
L 344.221937 -147.016442 
L 343.765392 -147.215804 
L 343.308847 -147.421788 
L 342.852301 -147.633865 
L 342.395756 -147.851488 
L 341.93921 -148.074093 
L 341.482665 -148.3011 
L 341.026119 -148.531915 
L 340.569574 -148.765927 
L 340.113028 -149.002512 
L 339.656483 -149.241032 
L 339.199937 -149.480838 
L 338.743392 -149.721267 
L 338.286847 -149.961648 
L 337.830301 -150.2013 
L 337.373756 -150.43953 
L 336.91721 -150.675642 
L 336.460665 -150.908928 
L 336.004119 -151.13868 
L 335.547574 -151.447238 
L 335.091028 -151.859273 
L 334.634483 -152.24373 
L 334.177937 -152.600633 
L 333.721392 -152.930047 
L 333.264847 -153.232065 
L 332.808301 -153.506816 
L 332.351756 -153.754461 
L 331.89521 -153.975192 
L 331.438665 -154.169234 
L 330.982119 -154.336843 
L 330.525574 -154.478307 
L 330.069028 -154.593944 
L 329.612483 -154.684102 
L 329.155937 -154.749161 
L 328.699392 -154.789527 
L 328.242847 -154.805636 
L 327.786301 -154.797953 
L 327.329756 -154.766969 
L 326.87321 -154.713202 
L 326.416665 -154.637193 
L 325.960119 -154.539512 
L 325.503574 -154.420749 
L 325.047028 -154.281519 
L 324.590483 -154.122459 
L 324.133937 -153.944226 
L 323.677392 -153.747497 
L 323.220847 -153.532969 
L 322.764301 -153.301355 
L 322.307756 -153.053387 
L 321.85121 -152.789811 
L 321.394665 -152.511391 
L 320.938119 -152.218914 
L 320.481574 -151.920479 
L 320.025028 -151.612102 
L 319.568483 -151.279705 
L 319.111937 -150.924359 
L 318.655392 -150.573147 
L 318.198847 -150.213036 
L 317.742301 -149.844544 
L 317.285756 -149.468503 
L 316.82921 -149.08575 
L 316.372665 -148.697124 
L 315.916119 -148.303464 
L 315.459574 -147.905609 
L 315.003028 -147.504393 
L 314.546483 -147.100648 
L 314.089937 -146.695201 
L 313.633392 -146.28887 
L 313.176847 -145.88247 
L 312.720301 -145.476805 
L 312.263756 -145.07267 
L 311.80721 -144.670848 
L 311.350665 -144.272113 
L 310.894119 -143.877225 
L 310.437574 -143.48693 
L 309.981028 -143.101959 
L 309.524483 -142.723029 
L 309.067937 -142.350839 
L 308.611392 -141.986072 
L 308.154847 -141.629393 
L 307.698301 -141.281446 
L 307.241756 -140.942857 
L 306.78521 -140.614232 
L 306.328665 -140.296155 
L 305.872119 -139.989189 
L 305.415574 -139.693876 
L 304.959028 -139.410732 
L 304.502483 -139.140252 
L 304.045937 -138.882909 
L 303.589392 -138.639149 
L 303.132847 -138.409394 
L 302.676301 -138.194043 
L 302.219756 -137.99347 
L 301.76321 -137.808021 
L 301.306665 -137.638021 
L 300.850119 -137.483765 
L 300.393574 -137.345526 
L 299.937028 -137.223549 
L 299.480483 -137.118056 
L 299.023937 -137.02924 
L 298.567392 -136.957272 
L 298.110847 -136.902295 
L 297.654301 -136.864429 
L 297.197756 -136.843767 
L 296.74121 -136.840379 
L 296.284665 -136.85431 
L 295.828119 -136.885579 
L 295.371574 -136.934184 
L 294.915028 -137.000099 
L 294.458483 -137.083274 
L 294.001937 -137.183636 
L 293.545392 -137.301093 
L 293.088847 -137.435527 
L 292.632301 -137.586803 
L 292.175756 -137.754763 
L 291.71921 -137.939231 
L 291.262665 -138.140009 
L 290.806119 -138.356883 
L 290.349574 -138.58962 
L 289.893028 -138.837968 
L 289.436483 -139.101662 
L 288.979937 -139.380417 
L 288.523392 -139.673936 
L 288.066847 -139.981904 
L 287.610301 -140.303994 
L 287.153756 -140.639867 
L 286.69721 -140.989168 
L 286.240665 -141.351534 
L 285.784119 -141.726588 
L 285.327574 -142.113945 
L 284.871028 -142.513208 
L 284.414483 -142.923973 
L 283.957937 -143.345828 
L 283.501392 -143.778352 
L 283.044847 -144.221118 
L 282.588301 -144.673694 
L 282.131756 -145.13564 
L 281.67521 -145.606515 
L 281.218665 -146.085871 
L 280.762119 -146.573257 
L 280.305574 -147.068222 
L 279.849028 -147.570309 
L 279.392483 -148.079063 
L 278.935937 -148.594025 
L 278.479392 -149.114739 
L 278.022847 -149.640745 
L 277.566301 -150.171589 
L 277.109756 -150.706813 
L 276.65321 -151.245965 
L 276.196665 -151.788593 
L 275.740119 -152.334248 
L 275.283574 -152.882484 
L 274.827028 -153.43286 
L 274.370483 -153.984936 
L 273.913937 -154.53828 
L 273.457392 -155.092461 
L 273.000847 -155.647055 
L 272.544301 -156.201643 
L 272.087756 -156.755811 
L 271.63121 -157.30915 
L 271.174665 -157.86126 
L 270.718119 -158.411743 
L 270.261574 -158.960211 
L 269.805028 -159.50628 
L 269.348483 -160.049573 
L 268.891937 -160.589721 
L 268.435392 -161.126361 
L 267.978847 -161.659136 
L 267.522301 -162.187699 
L 267.065756 -162.711708 
L 266.60921 -163.230826 
L 266.152665 -163.744728 
L 265.696119 -164.253092 
L 265.239574 -164.755605 
L 264.783028 -165.25196 
L 264.326483 -165.741859 
L 263.869937 -166.225009 
L 263.413392 -166.701125 
L 262.956847 -167.169928 
L 262.500301 -167.631147 
L 262.043756 -168.084517 
L 261.58721 -168.529779 
L 261.130665 -168.966683 
L 260.674119 -169.394982 
L 260.217574 -169.814439 
L 259.761028 -170.22482 
L 259.304483 -170.625899 
L 258.847937 -171.017456 
L 258.391392 -171.399276 
L 257.934847 -171.771152 
L 257.478301 -172.132881 
L 257.021756 -172.484265 
L 256.56521 -172.825114 
L 256.108665 -173.155241 
L 255.652119 -173.474467 
L 255.195574 -173.782616 
L 254.739028 -174.07952 
L 254.282483 -174.365013 
L 253.825937 -174.638937 
L 253.369392 -174.901137 
L 252.912847 -175.151466 
L 252.456301 -175.389779 
L 251.999756 -175.615939 
L 251.54321 -175.829811 
L 251.086665 -176.031268 
L 250.630119 -176.220187 
L 250.173574 -176.39645 
L 249.717028 -176.559943 
L 249.260483 -176.710561 
L 248.803937 -176.848201 
L 248.347392 -176.972766 
L 247.890847 -177.084164 
L 247.434301 -177.182311 
L 246.977756 -177.267127 
L 246.52121 -177.338536 
L 246.064665 -177.396471 
L 245.608119 -177.44087 
L 245.151574 -177.471674 
L 244.695028 -177.488836 
L 244.238483 -177.49231 
L 243.781937 -177.48206 
L 243.325392 -177.458055 
L 242.868847 -177.42027 
L 242.412301 -177.36869 
L 241.955756 -177.303304 
L 241.49921 -177.22411 
L 241.042665 -177.131112 
L 240.586119 -177.024324 
L 240.129574 -176.903766 
L 239.673028 -176.769466 
L 239.216483 -176.621461 
L 238.759937 -176.459794 
L 238.303392 -176.28452 
L 237.846847 -176.0957 
L 237.390301 -175.893405 
L 236.933756 -175.677714 
L 236.47721 -175.448715 
L 236.020665 -175.206507 
L 235.564119 -174.951195 
L 235.107574 -174.682897 
L 234.651028 -174.401739 
L 234.194483 -174.107857 
L 233.737937 -173.801394 
L 233.281392 -173.482509 
L 232.824847 -173.151364 
L 232.368301 -172.808137 
L 231.911756 -172.453012 
L 231.45521 -172.086185 
L 230.998665 -171.707861 
L 230.542119 -171.318257 
L 230.085574 -170.9176 
L 229.629028 -170.506124 
L 229.172483 -170.084078 
L 228.715937 -169.651717 
L 228.259392 -169.209309 
L 227.802847 -168.757131 
L 227.346301 -168.295469 
L 226.889756 -167.824621 
L 226.43321 -167.344893 
L 225.976665 -166.856601 
L 225.520119 -166.360073 
L 225.063574 -165.855642 
L 224.607028 -165.343654 
L 224.150483 -164.824462 
L 223.693937 -164.298428 
L 223.237392 -163.765924 
L 222.780847 -163.227329 
L 222.324301 -162.683032 
L 221.867756 -162.133427 
L 221.41121 -161.578918 
L 220.954665 -161.019916 
L 220.498119 -160.456838 
L 220.041574 -159.890108 
L 219.585028 -159.320159 
L 219.128483 -158.747425 
L 218.671937 -158.172351 
L 218.215392 -157.595384 
L 217.758847 -157.016977 
L 217.302301 -156.437587 
L 216.845756 -155.857676 
L 216.38921 -155.277709 
L 215.932665 -154.698155 
L 215.476119 -154.119486 
L 215.019574 -153.542174 
L 214.563028 -152.966697 
L 214.106483 -152.393531 
L 213.649937 -151.823155 
L 213.193392 -151.256048 
L 212.736847 -150.692688 
L 212.280301 -150.133554 
L 211.823756 -149.579124 
L 211.36721 -149.029873 
L 210.910665 -148.486276 
L 210.454119 -147.948805 
L 209.997574 -147.417928 
L 209.541028 -146.894111 
L 209.084483 -146.377815 
L 208.627937 -145.869496 
L 208.171392 -145.369608 
L 207.714847 -144.878595 
L 207.258301 -144.769588 
L 206.801756 -145.577338 
L 206.34521 -146.366508 
L 205.888665 -147.136582 
L 205.432119 -147.887052 
L 204.975574 -148.61742 
L 204.519028 -149.327201 
L 204.062483 -150.015919 
L 203.605937 -150.683112 
L 203.149392 -151.32833 
L 202.692847 -151.951136 
L 202.236301 -152.551107 
L 201.779756 -153.127833 
L 201.32321 -153.68092 
L 200.866665 -154.209988 
L 200.410119 -154.714674 
L 199.953574 -155.194629 
L 199.497028 -155.649523 
L 199.040483 -156.07904 
L 198.583937 -156.482882 
L 198.127392 -156.860771 
L 197.670847 -157.212444 
L 197.214301 -157.537658 
L 196.757756 -157.836186 
L 196.30121 -158.107824 
L 195.844665 -158.352383 
L 195.388119 -158.569695 
L 194.931574 -158.759614 
L 194.475028 -158.922008 
L 194.018483 -159.056771 
L 193.561937 -159.163813 
L 193.105392 -159.243066 
L 192.648847 -159.294482 
L 192.192301 -159.318032 
L 191.735756 -159.313709 
L 191.27921 -159.281527 
L 190.822665 -159.221518 
L 190.366119 -159.133735 
L 189.909574 -159.018254 
L 189.453028 -158.875169 
L 188.996483 -158.704593 
L 188.539937 -158.506661 
L 188.083392 -158.281528 
L 187.626847 -158.029367 
L 187.170301 -157.750373 
L 186.713756 -157.444758 
L 186.25721 -157.112754 
L 185.800665 -156.754612 
L 185.344119 -156.3706 
L 184.887574 -155.961007 
L 184.431028 -155.526138 
L 183.974483 -155.066315 
L 183.517937 -154.581878 
L 183.061392 -154.073185 
L 182.604847 -153.540607 
L 182.148301 -152.984535 
L 181.691756 -152.405373 
L 181.23521 -151.80354 
L 180.778665 -151.179471 
L 180.322119 -150.533612 
L 179.865574 -149.866427 
L 179.409028 -149.17839 
L 178.952483 -148.469988 
L 178.495937 -147.74172 
L 178.039392 -146.994098 
L 177.582847 -146.227641 
L 177.126301 -145.443564 
z
" style="stroke: #0000ff; stroke-opacity: 0.2"/>
    </defs>
    <g clip-path="url(#p15b19fc01b)">
     <use xlink:href="#m24631e7342" x="0" y="216" style="fill: #0000ff; fill-opacity: 0.2; stroke: #0000ff; stroke-opacity: 0.2"/>
    </g>
   </g>
   <g id="matplotlib.axis_1">
    <g id="xtick_1">
     <g id="line2d_2">
      <path d="M 149.481818 192.24 
L 149.481818 25.92 
" clip-path="url(#p15b19fc01b)" style="fill: none; stroke: #b0b0b0; stroke-opacity: 0.4; stroke-width: 0.8; stroke-linecap: square"/>
     </g>
     <g id="line2d_3">
      <defs>
       <path id="m719d442eae" d="M 0 0 
L 0 3.5 
" style="stroke: #000000; stroke-width: 0.8"/>
      </defs>
      <g>
       <use xlink:href="#m719d442eae" x="149.481818" y="192.24" style="stroke: #000000; stroke-width: 0.8"/>
      </g>
     </g>
     <g id="text_1">
      <!-- −4 -->
      <g transform="translate(140.636506 208.358125) scale(0.12 -0.12)">
       <defs>
        <path id="DejaVuSans-2212" d="M 678 2272 
L 4684 2272 
L 4684 1741 
L 678 1741 
L 678 2272 
z
" transform="scale(0.015625)"/>
        <path id="DejaVuSans-34" d="M 2419 4116 
L 825 1625 
L 2419 1625 
L 2419 4116 
z
M 2253 4666 
L 3047 4666 
L 3047 1625 
L 3713 1625 
L 3713 1100 
L 3047 1100 
L 3047 0 
L 2419 0 
L 2419 1100 
L 313 1100 
L 313 1709 
L 2253 4666 
z
" transform="scale(0.015625)"/>
       </defs>
       <use xlink:href="#DejaVuSans-2212"/>
       <use xlink:href="#DejaVuSans-34" x="83.789062"/>
      </g>
     </g>
    </g>
    <g id="xtick_2">
     <g id="line2d_4">
      <path d="M 240.790909 192.24 
L 240.790909 25.92 
" clip-path="url(#p15b19fc01b)" style="fill: none; stroke: #b0b0b0; stroke-opacity: 0.4; stroke-width: 0.8; stroke-linecap: square"/>
     </g>
     <g id="line2d_5">
      <g>
       <use xlink:href="#m719d442eae" x="240.790909" y="192.24" style="stroke: #000000; stroke-width: 0.8"/>
      </g>
     </g>
     <g id="text_2">
      <!-- −2 -->
      <g transform="translate(231.945597 208.358125) scale(0.12 -0.12)">
       <defs>
        <path id="DejaVuSans-32" d="M 1228 531 
L 3431 531 
L 3431 0 
L 469 0 
L 469 531 
Q 828 903 1448 1529 
Q 2069 2156 2228 2338 
Q 2531 2678 2651 2914 
Q 2772 3150 2772 3378 
Q 2772 3750 2511 3984 
Q 2250 4219 1831 4219 
Q 1534 4219 1204 4116 
Q 875 4013 500 3803 
L 500 4441 
Q 881 4594 1212 4672 
Q 1544 4750 1819 4750 
Q 2544 4750 2975 4387 
Q 3406 4025 3406 3419 
Q 3406 3131 3298 2873 
Q 3191 2616 2906 2266 
Q 2828 2175 2409 1742 
Q 1991 1309 1228 531 
z
" transform="scale(0.015625)"/>
       </defs>
       <use xlink:href="#DejaVuSans-2212"/>
       <use xlink:href="#DejaVuSans-32" x="83.789062"/>
      </g>
     </g>
    </g>
    <g id="xtick_3">
     <g id="line2d_6">
      <path d="M 332.1 192.24 
L 332.1 25.92 
" clip-path="url(#p15b19fc01b)" style="fill: none; stroke: #b0b0b0; stroke-opacity: 0.4; stroke-width: 0.8; stroke-linecap: square"/>
     </g>
     <g id="line2d_7">
      <g>
       <use xlink:href="#m719d442eae" x="332.1" y="192.24" style="stroke: #000000; stroke-width: 0.8"/>
      </g>
     </g>
     <g id="text_3">
      <!-- 0 -->
      <g transform="translate(328.2825 208.358125) scale(0.12 -0.12)">
       <defs>
        <path id="DejaVuSans-30" d="M 2034 4250 
Q 1547 4250 1301 3770 
Q 1056 3291 1056 2328 
Q 1056 1369 1301 889 
Q 1547 409 2034 409 
Q 2525 409 2770 889 
Q 3016 1369 3016 2328 
Q 3016 3291 2770 3770 
Q 2525 4250 2034 4250 
z
M 2034 4750 
Q 2819 4750 3233 4129 
Q 3647 3509 3647 2328 
Q 3647 1150 3233 529 
Q 2819 -91 2034 -91 
Q 1250 -91 836 529 
Q 422 1150 422 2328 
Q 422 3509 836 4129 
Q 1250 4750 2034 4750 
z
" transform="scale(0.015625)"/>
       </defs>
       <use xlink:href="#DejaVuSans-30"/>
      </g>
     </g>
    </g>
    <g id="xtick_4">
     <g id="line2d_8">
      <path d="M 423.409091 192.24 
L 423.409091 25.92 
" clip-path="url(#p15b19fc01b)" style="fill: none; stroke: #b0b0b0; stroke-opacity: 0.4; stroke-width: 0.8; stroke-linecap: square"/>
     </g>
     <g id="line2d_9">
      <g>
       <use xlink:href="#m719d442eae" x="423.409091" y="192.24" style="stroke: #000000; stroke-width: 0.8"/>
      </g>
     </g>
     <g id="text_4">
      <!-- 2 -->
      <g transform="translate(419.591591 208.358125) scale(0.12 -0.12)">
       <use xlink:href="#DejaVuSans-32"/>
      </g>
     </g>
    </g>
    <g id="xtick_5">
     <g id="line2d_10">
      <path d="M 514.718182 192.24 
L 514.718182 25.92 
" clip-path="url(#p15b19fc01b)" style="fill: none; stroke: #b0b0b0; stroke-opacity: 0.4; stroke-width: 0.8; stroke-linecap: square"/>
     </g>
     <g id="line2d_11">
      <g>
       <use xlink:href="#m719d442eae" x="514.718182" y="192.24" style="stroke: #000000; stroke-width: 0.8"/>
      </g>
     </g>
     <g id="text_5">
      <!-- 4 -->
      <g transform="translate(510.900682 208.358125) scale(0.12 -0.12)">
       <use xlink:href="#DejaVuSans-34"/>
      </g>
     </g>
    </g>
    <g id="text_6">
     <!-- $x$ -->
     <g transform="translate(326.7 228.530937) scale(0.18 -0.18)">
      <defs>
       <path id="DejaVuSans-Oblique-78" d="M 3841 3500 
L 2234 1784 
L 3219 0 
L 2559 0 
L 1819 1388 
L 531 0 
L -166 0 
L 1556 1844 
L 641 3500 
L 1300 3500 
L 1972 2234 
L 3144 3500 
L 3841 3500 
z
" transform="scale(0.015625)"/>
      </defs>
      <use xlink:href="#DejaVuSans-Oblique-78" transform="translate(0 0.3125)"/>
     </g>
    </g>
   </g>
   <g id="matplotlib.axis_2">
    <g id="ytick_1">
     <g id="line2d_12">
      <path d="M 81 167.291124 
L 583.2 167.291124 
" clip-path="url(#p15b19fc01b)" style="fill: none; stroke: #b0b0b0; stroke-opacity: 0.4; stroke-width: 0.8; stroke-linecap: square"/>
     </g>
     <g id="line2d_13">
      <defs>
       <path id="mc326cf3d31" d="M 0 0 
L -3.5 0 
" style="stroke: #000000; stroke-width: 0.8"/>
      </defs>
      <g>
       <use xlink:href="#mc326cf3d31" x="81" y="167.291124" style="stroke: #000000; stroke-width: 0.8"/>
      </g>
     </g>
     <g id="text_7">
      <!-- −2 -->
      <g transform="translate(56.309375 171.850186) scale(0.12 -0.12)">
       <use xlink:href="#DejaVuSans-2212"/>
       <use xlink:href="#DejaVuSans-32" x="83.789062"/>
      </g>
     </g>
    </g>
    <g id="ytick_2">
     <g id="line2d_14">
      <path d="M 81 132.507459 
L 583.2 132.507459 
" clip-path="url(#p15b19fc01b)" style="fill: none; stroke: #b0b0b0; stroke-opacity: 0.4; stroke-width: 0.8; stroke-linecap: square"/>
     </g>
     <g id="line2d_15">
      <g>
       <use xlink:href="#mc326cf3d31" x="81" y="132.507459" style="stroke: #000000; stroke-width: 0.8"/>
      </g>
     </g>
     <g id="text_8">
      <!-- −1 -->
      <g transform="translate(56.309375 137.066522) scale(0.12 -0.12)">
       <defs>
        <path id="DejaVuSans-31" d="M 794 531 
L 1825 531 
L 1825 4091 
L 703 3866 
L 703 4441 
L 1819 4666 
L 2450 4666 
L 2450 531 
L 3481 531 
L 3481 0 
L 794 0 
L 794 531 
z
" transform="scale(0.015625)"/>
       </defs>
       <use xlink:href="#DejaVuSans-2212"/>
       <use xlink:href="#DejaVuSans-31" x="83.789062"/>
      </g>
     </g>
    </g>
    <g id="ytick_3">
     <g id="line2d_16">
      <path d="M 81 97.723795 
L 583.2 97.723795 
" clip-path="url(#p15b19fc01b)" style="fill: none; stroke: #b0b0b0; stroke-opacity: 0.4; stroke-width: 0.8; stroke-linecap: square"/>
     </g>
     <g id="line2d_17">
      <g>
       <use xlink:href="#mc326cf3d31" x="81" y="97.723795" style="stroke: #000000; stroke-width: 0.8"/>
      </g>
     </g>
     <g id="text_9">
      <!-- 0 -->
      <g transform="translate(66.365 102.282857) scale(0.12 -0.12)">
       <use xlink:href="#DejaVuSans-30"/>
      </g>
     </g>
    </g>
    <g id="ytick_4">
     <g id="line2d_18">
      <path d="M 81 62.94013 
L 583.2 62.94013 
" clip-path="url(#p15b19fc01b)" style="fill: none; stroke: #b0b0b0; stroke-opacity: 0.4; stroke-width: 0.8; stroke-linecap: square"/>
     </g>
     <g id="line2d_19">
      <g>
       <use xlink:href="#mc326cf3d31" x="81" y="62.94013" style="stroke: #000000; stroke-width: 0.8"/>
      </g>
     </g>
     <g id="text_10">
      <!-- 1 -->
      <g transform="translate(66.365 67.499193) scale(0.12 -0.12)">
       <use xlink:href="#DejaVuSans-31"/>
      </g>
     </g>
    </g>
    <g id="ytick_5">
     <g id="line2d_20">
      <path d="M 81 28.156466 
L 583.2 28.156466 
" clip-path="url(#p15b19fc01b)" style="fill: none; stroke: #b0b0b0; stroke-opacity: 0.4; stroke-width: 0.8; stroke-linecap: square"/>
     </g>
     <g id="line2d_21">
      <g>
       <use xlink:href="#mc326cf3d31" x="81" y="28.156466" style="stroke: #000000; stroke-width: 0.8"/>
      </g>
     </g>
     <g id="text_11">
      <!-- 2 -->
      <g transform="translate(66.365 32.715528) scale(0.12 -0.12)">
       <use xlink:href="#DejaVuSans-32"/>
      </g>
     </g>
    </g>
    <g id="text_12">
     <!-- $f(x)$ -->
     <g transform="translate(48.565938 124.65) rotate(-90) scale(0.18 -0.18)">
      <defs>
       <path id="DejaVuSans-Oblique-66" d="M 3059 4863 
L 2969 4384 
L 2419 4384 
Q 2106 4384 1964 4261 
Q 1822 4138 1753 3809 
L 1691 3500 
L 2638 3500 
L 2553 3053 
L 1606 3053 
L 1013 0 
L 434 0 
L 1031 3053 
L 481 3053 
L 563 3500 
L 1113 3500 
L 1159 3744 
Q 1278 4363 1576 4613 
Q 1875 4863 2516 4863 
L 3059 4863 
z
" transform="scale(0.015625)"/>
       <path id="DejaVuSans-28" d="M 1984 4856 
Q 1566 4138 1362 3434 
Q 1159 2731 1159 2009 
Q 1159 1288 1364 580 
Q 1569 -128 1984 -844 
L 1484 -844 
Q 1016 -109 783 600 
Q 550 1309 550 2009 
Q 550 2706 781 3412 
Q 1013 4119 1484 4856 
L 1984 4856 
z
" transform="scale(0.015625)"/>
       <path id="DejaVuSans-29" d="M 513 4856 
L 1013 4856 
Q 1481 4119 1714 3412 
Q 1947 2706 1947 2009 
Q 1947 1309 1714 600 
Q 1481 -109 1013 -844 
L 513 -844 
Q 928 -128 1133 580 
Q 1338 1288 1338 2009 
Q 1338 2731 1133 3434 
Q 928 4138 513 4856 
z
" transform="scale(0.015625)"/>
      </defs>
      <use xlink:href="#DejaVuSans-Oblique-66" transform="translate(0 0.015625)"/>
      <use xlink:href="#DejaVuSans-28" transform="translate(35.205078 0.015625)"/>
      <use xlink:href="#DejaVuSans-Oblique-78" transform="translate(74.21875 0.015625)"/>
      <use xlink:href="#DejaVuSans-29" transform="translate(133.398438 0.015625)"/>
     </g>
    </g>
   </g>
   <g id="line2d_22">
    <path d="M 177.126301 70.557118 
L 180.778665 69.54865 
L 183.974483 68.89754 
L 187.170301 68.478604 
L 190.366119 68.302372 
L 193.561937 68.374336 
L 196.757756 68.694985 
L 199.953574 69.260038 
L 203.149392 70.060879 
L 206.34521 71.085155 
L 209.997574 72.509551 
L 213.649937 74.179379 
L 217.758847 76.316047 
L 222.324301 78.962852 
L 227.346301 82.144295 
L 233.281392 86.182689 
L 241.042665 91.759194 
L 253.369392 100.643397 
L 257.934847 103.625943 
L 261.58721 105.732462 
L 264.326483 107.083579 
L 267.065756 108.186411 
L 269.348483 108.880257 
L 271.63121 109.338885 
L 273.913937 109.534682 
L 275.740119 109.484822 
L 277.566301 109.238724 
L 279.392483 108.786511 
L 281.218665 108.120453 
L 283.044847 107.235358 
L 284.871028 106.128938 
L 286.69721 104.802135 
L 288.979937 102.840836 
L 291.262665 100.559273 
L 293.545392 97.983718 
L 296.284665 94.555907 
L 299.480483 90.193498 
L 304.959028 82.246305 
L 309.524483 75.746247 
L 312.720301 71.592151 
L 315.003028 68.946661 
L 317.285756 66.640406 
L 319.111937 65.076488 
L 320.938119 63.788095 
L 322.764301 62.794178 
L 324.590483 62.108779 
L 325.960119 61.802712 
L 327.329756 61.677015 
L 328.699392 61.731709 
L 330.069028 61.965105 
L 331.438665 62.373832 
L 333.264847 63.182665 
L 335.091028 64.278014 
L 336.91721 65.639272 
L 339.199937 67.676984 
L 341.482665 70.036202 
L 344.221937 73.204673 
L 347.874301 77.814239 
L 357.461756 90.142797 
L 360.657574 93.784155 
L 363.396847 96.564234 
L 365.679574 98.603699 
L 367.962301 100.371925 
L 370.245028 101.859594 
L 372.527756 103.065016 
L 374.810483 103.993305 
L 377.09321 104.655409 
L 379.375937 105.067034 
L 381.658665 105.247533 
L 383.941392 105.218806 
L 386.680665 104.941154 
L 389.419937 104.437285 
L 392.615756 103.617432 
L 396.268119 102.447397 
L 400.833574 100.748078 
L 408.138301 97.750889 
L 431.422119 87.831898 
L 436.900665 85.247202 
L 441.466119 82.843462 
L 445.575028 80.408645 
L 449.227392 77.984954 
L 452.879756 75.298538 
L 456.988665 71.976635 
L 462.010665 67.593738 
L 469.771937 60.791968 
L 472.967756 58.321021 
L 475.250483 56.798915 
L 477.53321 55.545589 
L 479.359392 54.775671 
L 481.185574 54.243757 
L 483.011756 53.976567 
L 484.381392 53.964462 
L 485.751028 54.123713 
L 487.120665 54.461922 
L 488.490301 54.985261 
L 489.859937 55.698328 
L 491.686119 56.948979 
L 493.512301 58.543755 
L 493.512301 58.543755 
" clip-path="url(#p15b19fc01b)" style="fill: none; stroke: #0000ff; stroke-width: 1.5; stroke-linecap: square"/>
   </g>
   <g id="patch_3">
    <path d="M 81 192.24 
L 81 25.92 
" style="fill: none; stroke: #000000; stroke-width: 0.8; stroke-linejoin: miter; stroke-linecap: square"/>
   </g>
   <g id="patch_4">
    <path d="M 81 192.24 
L 583.2 192.24 
" style="fill: none; stroke: #000000; stroke-width: 0.8; stroke-linejoin: miter; stroke-linecap: square"/>
   </g>
   <g id="PathCollection_1">
    <defs>
     <path id="m8c2a190de9" d="M 0 2.236068 
C 0.593012 2.236068 1.161816 2.000462 1.581139 1.581139 
C 2.000462 1.161816 2.236068 0.593012 2.236068 0 
C 2.236068 -0.593012 2.000462 -1.161816 1.581139 -1.581139 
C 1.161816 -2.000462 0.593012 -2.236068 0 -2.236068 
C -0.593012 -2.236068 -1.161816 -2.000462 -1.581139 -1.581139 
C -2.000462 -1.161816 -2.236068 -0.593012 -2.236068 0 
C -2.236068 0.593012 -2.000462 1.161816 -1.581139 1.581139 
C -1.161816 2.000462 -0.593012 2.236068 0 2.236068 
z
" style="stroke: #191970"/>
    </defs>
    <g clip-path="url(#p15b19fc01b)">
     <use xlink:href="#m8c2a190de9" x="319.131746" y="65.060996" style="fill: #191970; stroke: #191970"/>
     <use xlink:href="#m8c2a190de9" x="489.483955" y="55.483481" style="fill: #191970; stroke: #191970"/>
     <use xlink:href="#m8c2a190de9" x="207.389413" y="71.465746" style="fill: #191970; stroke: #191970"/>
     <use xlink:href="#m8c2a190de9" x="320.667344" y="63.960941" style="fill: #191970; stroke: #191970"/>
     <use xlink:href="#m8c2a190de9" x="335.730541" y="64.72564" style="fill: #191970; stroke: #191970"/>
     <use xlink:href="#m8c2a190de9" x="493.738877" y="58.765482" style="fill: #191970; stroke: #191970"/>
     <use xlink:href="#m8c2a190de9" x="486.969397" y="54.415601" style="fill: #191970; stroke: #191970"/>
     <use xlink:href="#m8c2a190de9" x="485.379344" y="54.063038" style="fill: #191970; stroke: #191970"/>
     <use xlink:href="#m8c2a190de9" x="177.126301" y="70.557118" style="fill: #191970; stroke: #191970"/>
     <use xlink:href="#m8c2a190de9" x="485.061476" y="54.021655" style="fill: #191970; stroke: #191970"/>
    </g>
   </g>
   <g id="legend_1">
    <g id="line2d_23">
     <path d="M 35.611719 10.993812 
L 49.611719 10.993812 
L 63.611719 10.993812 
" style="fill: none; stroke-dasharray: 5.55,2.4; stroke-dashoffset: 0; stroke: #ff0000; stroke-width: 1.5"/>
    </g>
    <g id="text_13">
     <!-- True Function -->
     <g transform="translate(74.811719 15.893812) scale(0.14 -0.14)">
      <defs>
       <path id="DejaVuSans-54" d="M -19 4666 
L 3928 4666 
L 3928 4134 
L 2272 4134 
L 2272 0 
L 1638 0 
L 1638 4134 
L -19 4134 
L -19 4666 
z
" transform="scale(0.015625)"/>
       <path id="DejaVuSans-72" d="M 2631 2963 
Q 2534 3019 2420 3045 
Q 2306 3072 2169 3072 
Q 1681 3072 1420 2755 
Q 1159 2438 1159 1844 
L 1159 0 
L 581 0 
L 581 3500 
L 1159 3500 
L 1159 2956 
Q 1341 3275 1631 3429 
Q 1922 3584 2338 3584 
Q 2397 3584 2469 3576 
Q 2541 3569 2628 3553 
L 2631 2963 
z
" transform="scale(0.015625)"/>
       <path id="DejaVuSans-75" d="M 544 1381 
L 544 3500 
L 1119 3500 
L 1119 1403 
Q 1119 906 1312 657 
Q 1506 409 1894 409 
Q 2359 409 2629 706 
Q 2900 1003 2900 1516 
L 2900 3500 
L 3475 3500 
L 3475 0 
L 2900 0 
L 2900 538 
Q 2691 219 2414 64 
Q 2138 -91 1772 -91 
Q 1169 -91 856 284 
Q 544 659 544 1381 
z
M 1991 3584 
L 1991 3584 
z
" transform="scale(0.015625)"/>
       <path id="DejaVuSans-65" d="M 3597 1894 
L 3597 1613 
L 953 1613 
Q 991 1019 1311 708 
Q 1631 397 2203 397 
Q 2534 397 2845 478 
Q 3156 559 3463 722 
L 3463 178 
Q 3153 47 2828 -22 
Q 2503 -91 2169 -91 
Q 1331 -91 842 396 
Q 353 884 353 1716 
Q 353 2575 817 3079 
Q 1281 3584 2069 3584 
Q 2775 3584 3186 3129 
Q 3597 2675 3597 1894 
z
M 3022 2063 
Q 3016 2534 2758 2815 
Q 2500 3097 2075 3097 
Q 1594 3097 1305 2825 
Q 1016 2553 972 2059 
L 3022 2063 
z
" transform="scale(0.015625)"/>
       <path id="DejaVuSans-20" transform="scale(0.015625)"/>
       <path id="DejaVuSans-46" d="M 628 4666 
L 3309 4666 
L 3309 4134 
L 1259 4134 
L 1259 2759 
L 3109 2759 
L 3109 2228 
L 1259 2228 
L 1259 0 
L 628 0 
L 628 4666 
z
" transform="scale(0.015625)"/>
       <path id="DejaVuSans-6e" d="M 3513 2113 
L 3513 0 
L 2938 0 
L 2938 2094 
Q 2938 2591 2744 2837 
Q 2550 3084 2163 3084 
Q 1697 3084 1428 2787 
Q 1159 2491 1159 1978 
L 1159 0 
L 581 0 
L 581 3500 
L 1159 3500 
L 1159 2956 
Q 1366 3272 1645 3428 
Q 1925 3584 2291 3584 
Q 2894 3584 3203 3211 
Q 3513 2838 3513 2113 
z
" transform="scale(0.015625)"/>
       <path id="DejaVuSans-63" d="M 3122 3366 
L 3122 2828 
Q 2878 2963 2633 3030 
Q 2388 3097 2138 3097 
Q 1578 3097 1268 2742 
Q 959 2388 959 1747 
Q 959 1106 1268 751 
Q 1578 397 2138 397 
Q 2388 397 2633 464 
Q 2878 531 3122 666 
L 3122 134 
Q 2881 22 2623 -34 
Q 2366 -91 2075 -91 
Q 1284 -91 818 406 
Q 353 903 353 1747 
Q 353 2603 823 3093 
Q 1294 3584 2113 3584 
Q 2378 3584 2631 3529 
Q 2884 3475 3122 3366 
z
" transform="scale(0.015625)"/>
       <path id="DejaVuSans-74" d="M 1172 4494 
L 1172 3500 
L 2356 3500 
L 2356 3053 
L 1172 3053 
L 1172 1153 
Q 1172 725 1289 603 
Q 1406 481 1766 481 
L 2356 481 
L 2356 0 
L 1766 0 
Q 1100 0 847 248 
Q 594 497 594 1153 
L 594 3053 
L 172 3053 
L 172 3500 
L 594 3500 
L 594 4494 
L 1172 4494 
z
" transform="scale(0.015625)"/>
       <path id="DejaVuSans-69" d="M 603 3500 
L 1178 3500 
L 1178 0 
L 603 0 
L 603 3500 
z
M 603 4863 
L 1178 4863 
L 1178 4134 
L 603 4134 
L 603 4863 
z
" transform="scale(0.015625)"/>
       <path id="DejaVuSans-6f" d="M 1959 3097 
Q 1497 3097 1228 2736 
Q 959 2375 959 1747 
Q 959 1119 1226 758 
Q 1494 397 1959 397 
Q 2419 397 2687 759 
Q 2956 1122 2956 1747 
Q 2956 2369 2687 2733 
Q 2419 3097 1959 3097 
z
M 1959 3584 
Q 2709 3584 3137 3096 
Q 3566 2609 3566 1747 
Q 3566 888 3137 398 
Q 2709 -91 1959 -91 
Q 1206 -91 779 398 
Q 353 888 353 1747 
Q 353 2609 779 3096 
Q 1206 3584 1959 3584 
z
" transform="scale(0.015625)"/>
      </defs>
      <use xlink:href="#DejaVuSans-54"/>
      <use xlink:href="#DejaVuSans-72" x="46.333984"/>
      <use xlink:href="#DejaVuSans-75" x="87.447266"/>
      <use xlink:href="#DejaVuSans-65" x="150.826172"/>
      <use xlink:href="#DejaVuSans-20" x="212.349609"/>
      <use xlink:href="#DejaVuSans-46" x="244.136719"/>
      <use xlink:href="#DejaVuSans-75" x="296.15625"/>
      <use xlink:href="#DejaVuSans-6e" x="359.535156"/>
      <use xlink:href="#DejaVuSans-63" x="422.914062"/>
      <use xlink:href="#DejaVuSans-74" x="477.894531"/>
      <use xlink:href="#DejaVuSans-69" x="517.103516"/>
      <use xlink:href="#DejaVuSans-6f" x="544.886719"/>
      <use xlink:href="#DejaVuSans-6e" x="606.068359"/>
     </g>
    </g>
    <g id="PathCollection_2">
     <g>
      <use xlink:href="#m8c2a190de9" x="210.530781" y="12.218812" style="fill: #191970; stroke: #191970"/>
     </g>
    </g>
    <g id="text_14">
     <!-- Samples -->
     <g transform="translate(235.730781 15.893812) scale(0.14 -0.14)">
      <defs>
       <path id="DejaVuSans-53" d="M 3425 4513 
L 3425 3897 
Q 3066 4069 2747 4153 
Q 2428 4238 2131 4238 
Q 1616 4238 1336 4038 
Q 1056 3838 1056 3469 
Q 1056 3159 1242 3001 
Q 1428 2844 1947 2747 
L 2328 2669 
Q 3034 2534 3370 2195 
Q 3706 1856 3706 1288 
Q 3706 609 3251 259 
Q 2797 -91 1919 -91 
Q 1588 -91 1214 -16 
Q 841 59 441 206 
L 441 856 
Q 825 641 1194 531 
Q 1563 422 1919 422 
Q 2459 422 2753 634 
Q 3047 847 3047 1241 
Q 3047 1584 2836 1778 
Q 2625 1972 2144 2069 
L 1759 2144 
Q 1053 2284 737 2584 
Q 422 2884 422 3419 
Q 422 4038 858 4394 
Q 1294 4750 2059 4750 
Q 2388 4750 2728 4690 
Q 3069 4631 3425 4513 
z
" transform="scale(0.015625)"/>
       <path id="DejaVuSans-61" d="M 2194 1759 
Q 1497 1759 1228 1600 
Q 959 1441 959 1056 
Q 959 750 1161 570 
Q 1363 391 1709 391 
Q 2188 391 2477 730 
Q 2766 1069 2766 1631 
L 2766 1759 
L 2194 1759 
z
M 3341 1997 
L 3341 0 
L 2766 0 
L 2766 531 
Q 2569 213 2275 61 
Q 1981 -91 1556 -91 
Q 1019 -91 701 211 
Q 384 513 384 1019 
Q 384 1609 779 1909 
Q 1175 2209 1959 2209 
L 2766 2209 
L 2766 2266 
Q 2766 2663 2505 2880 
Q 2244 3097 1772 3097 
Q 1472 3097 1187 3025 
Q 903 2953 641 2809 
L 641 3341 
Q 956 3463 1253 3523 
Q 1550 3584 1831 3584 
Q 2591 3584 2966 3190 
Q 3341 2797 3341 1997 
z
" transform="scale(0.015625)"/>
       <path id="DejaVuSans-6d" d="M 3328 2828 
Q 3544 3216 3844 3400 
Q 4144 3584 4550 3584 
Q 5097 3584 5394 3201 
Q 5691 2819 5691 2113 
L 5691 0 
L 5113 0 
L 5113 2094 
Q 5113 2597 4934 2840 
Q 4756 3084 4391 3084 
Q 3944 3084 3684 2787 
Q 3425 2491 3425 1978 
L 3425 0 
L 2847 0 
L 2847 2094 
Q 2847 2600 2669 2842 
Q 2491 3084 2119 3084 
Q 1678 3084 1418 2786 
Q 1159 2488 1159 1978 
L 1159 0 
L 581 0 
L 581 3500 
L 1159 3500 
L 1159 2956 
Q 1356 3278 1631 3431 
Q 1906 3584 2284 3584 
Q 2666 3584 2933 3390 
Q 3200 3197 3328 2828 
z
" transform="scale(0.015625)"/>
       <path id="DejaVuSans-70" d="M 1159 525 
L 1159 -1331 
L 581 -1331 
L 581 3500 
L 1159 3500 
L 1159 2969 
Q 1341 3281 1617 3432 
Q 1894 3584 2278 3584 
Q 2916 3584 3314 3078 
Q 3713 2572 3713 1747 
Q 3713 922 3314 415 
Q 2916 -91 2278 -91 
Q 1894 -91 1617 61 
Q 1341 213 1159 525 
z
M 3116 1747 
Q 3116 2381 2855 2742 
Q 2594 3103 2138 3103 
Q 1681 3103 1420 2742 
Q 1159 2381 1159 1747 
Q 1159 1113 1420 752 
Q 1681 391 2138 391 
Q 2594 391 2855 752 
Q 3116 1113 3116 1747 
z
" transform="scale(0.015625)"/>
       <path id="DejaVuSans-6c" d="M 603 4863 
L 1178 4863 
L 1178 0 
L 603 0 
L 603 4863 
z
" transform="scale(0.015625)"/>
       <path id="DejaVuSans-73" d="M 2834 3397 
L 2834 2853 
Q 2591 2978 2328 3040 
Q 2066 3103 1784 3103 
Q 1356 3103 1142 2972 
Q 928 2841 928 2578 
Q 928 2378 1081 2264 
Q 1234 2150 1697 2047 
L 1894 2003 
Q 2506 1872 2764 1633 
Q 3022 1394 3022 966 
Q 3022 478 2636 193 
Q 2250 -91 1575 -91 
Q 1294 -91 989 -36 
Q 684 19 347 128 
L 347 722 
Q 666 556 975 473 
Q 1284 391 1588 391 
Q 1994 391 2212 530 
Q 2431 669 2431 922 
Q 2431 1156 2273 1281 
Q 2116 1406 1581 1522 
L 1381 1569 
Q 847 1681 609 1914 
Q 372 2147 372 2553 
Q 372 3047 722 3315 
Q 1072 3584 1716 3584 
Q 2034 3584 2315 3537 
Q 2597 3491 2834 3397 
z
" transform="scale(0.015625)"/>
      </defs>
      <use xlink:href="#DejaVuSans-53"/>
      <use xlink:href="#DejaVuSans-61" x="63.476562"/>
      <use xlink:href="#DejaVuSans-6d" x="124.755859"/>
      <use xlink:href="#DejaVuSans-70" x="222.167969"/>
      <use xlink:href="#DejaVuSans-6c" x="285.644531"/>
      <use xlink:href="#DejaVuSans-65" x="313.427734"/>
      <use xlink:href="#DejaVuSans-73" x="374.951172"/>
     </g>
    </g>
    <g id="line2d_24">
     <path d="M 323.519531 10.993812 
L 337.519531 10.993812 
L 351.519531 10.993812 
" style="fill: none; stroke: #0000ff; stroke-width: 1.5; stroke-linecap: square"/>
    </g>
    <g id="text_15">
     <!-- GP Mean -->
     <g transform="translate(362.719531 15.893812) scale(0.14 -0.14)">
      <defs>
       <path id="DejaVuSans-47" d="M 3809 666 
L 3809 1919 
L 2778 1919 
L 2778 2438 
L 4434 2438 
L 4434 434 
Q 4069 175 3628 42 
Q 3188 -91 2688 -91 
Q 1594 -91 976 548 
Q 359 1188 359 2328 
Q 359 3472 976 4111 
Q 1594 4750 2688 4750 
Q 3144 4750 3555 4637 
Q 3966 4525 4313 4306 
L 4313 3634 
Q 3963 3931 3569 4081 
Q 3175 4231 2741 4231 
Q 1884 4231 1454 3753 
Q 1025 3275 1025 2328 
Q 1025 1384 1454 906 
Q 1884 428 2741 428 
Q 3075 428 3337 486 
Q 3600 544 3809 666 
z
" transform="scale(0.015625)"/>
       <path id="DejaVuSans-50" d="M 1259 4147 
L 1259 2394 
L 2053 2394 
Q 2494 2394 2734 2622 
Q 2975 2850 2975 3272 
Q 2975 3691 2734 3919 
Q 2494 4147 2053 4147 
L 1259 4147 
z
M 628 4666 
L 2053 4666 
Q 2838 4666 3239 4311 
Q 3641 3956 3641 3272 
Q 3641 2581 3239 2228 
Q 2838 1875 2053 1875 
L 1259 1875 
L 1259 0 
L 628 0 
L 628 4666 
z
" transform="scale(0.015625)"/>
       <path id="DejaVuSans-4d" d="M 628 4666 
L 1569 4666 
L 2759 1491 
L 3956 4666 
L 4897 4666 
L 4897 0 
L 4281 0 
L 4281 4097 
L 3078 897 
L 2444 897 
L 1241 4097 
L 1241 0 
L 628 0 
L 628 4666 
z
" transform="scale(0.015625)"/>
      </defs>
      <use xlink:href="#DejaVuSans-47"/>
      <use xlink:href="#DejaVuSans-50" x="77.490234"/>
      <use xlink:href="#DejaVuSans-20" x="137.792969"/>
      <use xlink:href="#DejaVuSans-4d" x="169.580078"/>
      <use xlink:href="#DejaVuSans-65" x="255.859375"/>
      <use xlink:href="#DejaVuSans-61" x="317.382812"/>
      <use xlink:href="#DejaVuSans-6e" x="378.662109"/>
     </g>
    </g>
    <g id="patch_5">
     <path d="M 452.603906 15.893812 
L 480.603906 15.893812 
L 480.603906 6.093812 
L 452.603906 6.093812 
z
" style="fill: #0000ff; fill-opacity: 0.2; stroke: #0000ff; stroke-opacity: 0.2; stroke-linejoin: miter"/>
    </g>
    <g id="text_16">
     <!-- Confidence Interval -->
     <g transform="translate(491.803906 15.893812) scale(0.14 -0.14)">
      <defs>
       <path id="DejaVuSans-43" d="M 4122 4306 
L 4122 3641 
Q 3803 3938 3442 4084 
Q 3081 4231 2675 4231 
Q 1875 4231 1450 3742 
Q 1025 3253 1025 2328 
Q 1025 1406 1450 917 
Q 1875 428 2675 428 
Q 3081 428 3442 575 
Q 3803 722 4122 1019 
L 4122 359 
Q 3791 134 3420 21 
Q 3050 -91 2638 -91 
Q 1578 -91 968 557 
Q 359 1206 359 2328 
Q 359 3453 968 4101 
Q 1578 4750 2638 4750 
Q 3056 4750 3426 4639 
Q 3797 4528 4122 4306 
z
" transform="scale(0.015625)"/>
       <path id="DejaVuSans-66" d="M 2375 4863 
L 2375 4384 
L 1825 4384 
Q 1516 4384 1395 4259 
Q 1275 4134 1275 3809 
L 1275 3500 
L 2222 3500 
L 2222 3053 
L 1275 3053 
L 1275 0 
L 697 0 
L 697 3053 
L 147 3053 
L 147 3500 
L 697 3500 
L 697 3744 
Q 697 4328 969 4595 
Q 1241 4863 1831 4863 
L 2375 4863 
z
" transform="scale(0.015625)"/>
       <path id="DejaVuSans-64" d="M 2906 2969 
L 2906 4863 
L 3481 4863 
L 3481 0 
L 2906 0 
L 2906 525 
Q 2725 213 2448 61 
Q 2172 -91 1784 -91 
Q 1150 -91 751 415 
Q 353 922 353 1747 
Q 353 2572 751 3078 
Q 1150 3584 1784 3584 
Q 2172 3584 2448 3432 
Q 2725 3281 2906 2969 
z
M 947 1747 
Q 947 1113 1208 752 
Q 1469 391 1925 391 
Q 2381 391 2643 752 
Q 2906 1113 2906 1747 
Q 2906 2381 2643 2742 
Q 2381 3103 1925 3103 
Q 1469 3103 1208 2742 
Q 947 2381 947 1747 
z
" transform="scale(0.015625)"/>
       <path id="DejaVuSans-49" d="M 628 4666 
L 1259 4666 
L 1259 0 
L 628 0 
L 628 4666 
z
" transform="scale(0.015625)"/>
       <path id="DejaVuSans-76" d="M 191 3500 
L 800 3500 
L 1894 563 
L 2988 3500 
L 3597 3500 
L 2284 0 
L 1503 0 
L 191 3500 
z
" transform="scale(0.015625)"/>
      </defs>
      <use xlink:href="#DejaVuSans-43"/>
      <use xlink:href="#DejaVuSans-6f" x="69.824219"/>
      <use xlink:href="#DejaVuSans-6e" x="131.005859"/>
      <use xlink:href="#DejaVuSans-66" x="194.384766"/>
      <use xlink:href="#DejaVuSans-69" x="229.589844"/>
      <use xlink:href="#DejaVuSans-64" x="257.373047"/>
      <use xlink:href="#DejaVuSans-65" x="320.849609"/>
      <use xlink:href="#DejaVuSans-6e" x="382.373047"/>
      <use xlink:href="#DejaVuSans-63" x="445.751953"/>
      <use xlink:href="#DejaVuSans-65" x="500.732422"/>
      <use xlink:href="#DejaVuSans-20" x="562.255859"/>
      <use xlink:href="#DejaVuSans-49" x="594.042969"/>
      <use xlink:href="#DejaVuSans-6e" x="623.535156"/>
      <use xlink:href="#DejaVuSans-74" x="686.914062"/>
      <use xlink:href="#DejaVuSans-65" x="726.123047"/>
      <use xlink:href="#DejaVuSans-72" x="787.646484"/>
      <use xlink:href="#DejaVuSans-76" x="828.759766"/>
      <use xlink:href="#DejaVuSans-61" x="887.939453"/>
      <use xlink:href="#DejaVuSans-6c" x="949.21875"/>
     </g>
    </g>
   </g>
  </g>
 </g>
 <defs>
  <clipPath id="p15b19fc01b">
   <rect x="81" y="25.92" width="502.2" height="166.32"/>
  </clipPath>
 </defs>
</svg>
